<svg viewBox="0 0 640 400" xmlns="http://www.w3.org/2000/svg" role="img" aria-label="Tiered governance map: five module boards rolling up to one emphasized steering board, with a compact membership grid and cadence tags">
  <defs>
    <pattern id="g" width="26" height="26" patternUnits="userSpaceOnUse"><circle cx="1" cy="1" r="1" fill="#fff" fill-opacity="0.05"/></pattern>
    <radialGradient id="gv" cx="50%" cy="38%" r="66%"><stop offset="0%" stop-color="#fff" stop-opacity="0.06"/><stop offset="100%" stop-color="#fff" stop-opacity="0"/></radialGradient>
  </defs>
  <rect width="640" height="400" fill="#0a0a0a"/><rect width="640" height="400" fill="url(#g)"/><rect width="640" height="400" fill="url(#gv)"/>

  <text x="32" y="34" font-family="'JetBrains Mono',monospace" font-size="10" fill="#fff" fill-opacity="0.5">GOVERNANCE · MODULE BOARDS → STEERING</text>
  <text x="608" y="34" text-anchor="end" font-family="'JetBrains Mono',monospace" font-size="9" fill="#fff" fill-opacity="0.32">01 / 03</text>

  <g fill="none" stroke="#fff" stroke-opacity="0.16" stroke-width="1.25" stroke-linecap="round">
    
    <path d="M150 121 V148"/>
    
    <path d="M62 148 H238"/>
    
    <path d="M76 148 V196"/>
    <path d="M113 148 V196"/>
    <path d="M150 148 V196"/>
    <path d="M187 148 V196"/>
    <path d="M224 148 V196"/>
  </g>

  <rect x="60" y="78" width="180" height="43" rx="9" fill="#fff" fill-opacity="0.95"/>
  <text x="150" y="100" text-anchor="middle" font-family="'JetBrains Mono',monospace" font-size="12" fill="#0a0a0a">STEERING BOARD</text>
  <text x="150" y="113" text-anchor="middle" font-family="'JetBrains Mono',monospace" font-size="8" fill="#0a0a0a" fill-opacity="0.7">CADENCE · MONTHLY</text>

  <g font-family="'JetBrains Mono',monospace">
    
    <rect x="56" y="196" width="40" height="58" rx="6" fill="#fff" fill-opacity="0.20" stroke="#fff" stroke-opacity="0.20"/>
    <text x="76" y="220" text-anchor="middle" font-size="8.5" fill="#fff" fill-opacity="0.6">MOD</text>
    <text x="76" y="232" text-anchor="middle" font-size="13" fill="#fff" fill-opacity="0.82">1</text>
    <text x="76" y="247" text-anchor="middle" font-size="6.8" fill="#fff" fill-opacity="0.45">WKLY</text>
    
    <rect x="93" y="196" width="40" height="58" rx="6" fill="#fff" fill-opacity="0.20" stroke="#fff" stroke-opacity="0.20"/>
    <text x="113" y="220" text-anchor="middle" font-size="8.5" fill="#fff" fill-opacity="0.6">MOD</text>
    <text x="113" y="232" text-anchor="middle" font-size="13" fill="#fff" fill-opacity="0.82">2</text>
    <text x="113" y="247" text-anchor="middle" font-size="6.8" fill="#fff" fill-opacity="0.45">WKLY</text>
    
    <rect x="130" y="196" width="40" height="58" rx="6" fill="#fff" fill-opacity="0.20" stroke="#fff" stroke-opacity="0.20"/>
    <text x="150" y="220" text-anchor="middle" font-size="8.5" fill="#fff" fill-opacity="0.6">MOD</text>
    <text x="150" y="232" text-anchor="middle" font-size="13" fill="#fff" fill-opacity="0.82">3</text>
    <text x="150" y="247" text-anchor="middle" font-size="6.8" fill="#fff" fill-opacity="0.45">BIWK</text>
    
    <rect x="167" y="196" width="40" height="58" rx="6" fill="#fff" fill-opacity="0.20" stroke="#fff" stroke-opacity="0.20"/>
    <text x="187" y="220" text-anchor="middle" font-size="8.5" fill="#fff" fill-opacity="0.6">MOD</text>
    <text x="187" y="232" text-anchor="middle" font-size="13" fill="#fff" fill-opacity="0.82">4</text>
    <text x="187" y="247" text-anchor="middle" font-size="6.8" fill="#fff" fill-opacity="0.45">WKLY</text>
    
    <rect x="204" y="196" width="40" height="58" rx="6" fill="#fff" fill-opacity="0.20" stroke="#fff" stroke-opacity="0.20"/>
    <text x="224" y="220" text-anchor="middle" font-size="8.5" fill="#fff" fill-opacity="0.6">MOD</text>
    <text x="224" y="232" text-anchor="middle" font-size="13" fill="#fff" fill-opacity="0.82">5</text>
    <text x="224" y="247" text-anchor="middle" font-size="6.8" fill="#fff" fill-opacity="0.45">BIWK</text>
  </g>

  <text x="150" y="284" text-anchor="middle" font-family="'JetBrains Mono',monospace" font-size="8.5" fill="#fff" fill-opacity="0.45">MODULE BOARDS · CADENCE TAGGED</text>

  <text x="338" y="86" font-family="'JetBrains Mono',monospace" font-size="9" fill="#fff" fill-opacity="0.5">MEMBERSHIP · FUNCTION × BOARD</text>

  <g font-family="'JetBrains Mono',monospace" font-size="8.5" fill="#fff" fill-opacity="0.5" text-anchor="middle">
    <text x="430" y="110">M1</text>
    <text x="460" y="110">M2</text>
    <text x="490" y="110">M3</text>
    <text x="520" y="110">M4</text>
    <text x="550" y="110">M5</text>
    <text x="586" y="110">STR</text>
  </g>

  <g font-family="'JetBrains Mono',monospace" font-size="8.5" fill="#fff" fill-opacity="0.55" text-anchor="end">
    <text x="406" y="131">QUALITY</text>
    <text x="406" y="156">PLANNING</text>
    <text x="406" y="181">MFG</text>
    <text x="406" y="206">IT / DATA</text>
    <text x="406" y="231">REGULATORY</text>
  </g>

  <g stroke="#fff" stroke-opacity="0.12" stroke-width="1">
    <line x1="415" y1="118" x2="601" y2="118"/>
    <line x1="565" y1="118" x2="565" y2="240"/>
  </g>

  
  <g font-family="'JetBrains Mono',monospace">
    
    <rect x="421" y="121" width="18" height="13" rx="3" fill="#fff" fill-opacity="0.34"/>
    <rect x="451" y="121" width="18" height="13" rx="3" fill="#fff" fill-opacity="0.34"/>
    <rect x="481" y="121" width="18" height="13" rx="3" fill="#fff" fill-opacity="0.34"/>
    <rect x="511" y="121" width="18" height="13" rx="3" fill="#fff" fill-opacity="0.34"/>
    <rect x="541" y="121" width="18" height="13" rx="3" fill="#fff" fill-opacity="0.34"/>
    <rect x="577" y="121" width="18" height="13" rx="3" fill="#fff" fill-opacity="0.34"/>

    <rect x="421" y="146" width="18" height="13" rx="3" fill="#fff" fill-opacity="0.30"/>
    <rect x="451" y="146" width="18" height="13" rx="3" fill="#fff" fill-opacity="0.18"/>
    <rect x="481" y="146" width="18" height="13" rx="3" fill="#fff" fill-opacity="0.30"/>
    <rect x="511" y="146" width="18" height="13" rx="3" fill="#fff" fill-opacity="0.30"/>
    <rect x="541" y="146" width="18" height="13" rx="3" fill="#fff" fill-opacity="0.18"/>
    <rect x="577" y="146" width="18" height="13" rx="3" fill="#fff" fill-opacity="0.30"/>

    <rect x="421" y="171" width="18" height="13" rx="3" fill="#fff" fill-opacity="0.18"/>
    <rect x="451" y="171" width="18" height="13" rx="3" fill="#fff" fill-opacity="0.30"/>
    <rect x="481" y="171" width="18" height="13" rx="3" fill="#fff" fill-opacity="0.30"/>
    <rect x="511" y="171" width="18" height="13" rx="3" fill="#fff" fill-opacity="0.18"/>
    <rect x="541" y="171" width="18" height="13" rx="3" fill="#fff" fill-opacity="0.30"/>
    <rect x="577" y="171" width="18" height="13" rx="3" fill="#fff" fill-opacity="0.18"/>

    <rect x="421" y="196" width="18" height="13" rx="3" fill="#fff" fill-opacity="0.30"/>
    <rect x="451" y="196" width="18" height="13" rx="3" fill="#fff" fill-opacity="0.30"/>
    <rect x="481" y="196" width="18" height="13" rx="3" fill="#fff" fill-opacity="0.18"/>
    <rect x="511" y="196" width="18" height="13" rx="3" fill="#fff" fill-opacity="0.30"/>
    <rect x="541" y="196" width="18" height="13" rx="3" fill="#fff" fill-opacity="0.30"/>
    <rect x="577" y="196" width="18" height="13" rx="3" fill="#fff" fill-opacity="0.30"/>

    <rect x="421" y="221" width="18" height="13" rx="3" fill="#fff" fill-opacity="0.18"/>
    <rect x="451" y="221" width="18" height="13" rx="3" fill="#fff" fill-opacity="0.18"/>
    <rect x="481" y="221" width="18" height="13" rx="3" fill="#fff" fill-opacity="0.30"/>
    <rect x="511" y="221" width="18" height="13" rx="3" fill="#fff" fill-opacity="0.18"/>
    <rect x="541" y="221" width="18" height="13" rx="3" fill="#fff" fill-opacity="0.18"/>
    <rect x="577" y="221" width="18" height="13" rx="3" fill="#fff" fill-opacity="0.30"/>
  </g>

  <g font-family="'JetBrains Mono',monospace" font-size="8" fill="#fff" fill-opacity="0.45">
    <rect x="415" y="258" width="12" height="10" rx="2.5" fill="#fff" fill-opacity="0.32"/>
    <text x="432" y="267">SEATED MEMBER</text>
    <rect x="520" y="258" width="12" height="10" rx="2.5" fill="#fff" fill-opacity="0.16"/>
    <text x="537" y="267">DELEGATE</text>
  </g>

  <line x1="300" y1="78" x2="300" y2="288" stroke="#fff" stroke-opacity="0.12" stroke-width="1"/>

  <text x="32" y="372" font-family="'JetBrains Mono',monospace" font-size="9" fill="#fff" fill-opacity="0.45">Module governance boards rolling up to a steering board, with cross-functional membership.</text>
</svg>
