<svg viewBox="0 0 640 400" xmlns="http://www.w3.org/2000/svg" role="img" aria-label="Supplier landscape matrix mapping risk categories to nested risk types across an external manufacturing network">
  <defs>
    <pattern id="g" width="26" height="26" patternUnits="userSpaceOnUse"><circle cx="1" cy="1" r="1" fill="#fff" fill-opacity="0.05"/></pattern>
    <radialGradient id="gv" cx="50%" cy="38%" r="66%"><stop offset="0%" stop-color="#fff" stop-opacity="0.06"/><stop offset="100%" stop-color="#fff" stop-opacity="0"/></radialGradient>
  </defs>
  <rect width="640" height="400" fill="#0a0a0a"/><rect width="640" height="400" fill="url(#g)"/><rect width="640" height="400" fill="url(#gv)"/>

  <text x="32" y="34" font-family="'JetBrains Mono',monospace" font-size="10" fill="#fff" fill-opacity="0.5">SUPPLIER LANDSCAPE · RISK MATRIX</text>
  <text x="608" y="34" text-anchor="end" font-family="'JetBrains Mono',monospace" font-size="9" fill="#fff" fill-opacity="0.32">01 / 03</text>

  <text x="44" y="68" font-family="'JetBrains Mono',monospace" font-size="9" fill="#fff" fill-opacity="0.6">CATEGORY</text>
  <text x="206" y="68" font-family="'JetBrains Mono',monospace" font-size="9" fill="#fff" fill-opacity="0.6">RISK TYPE</text>
  <text x="404" y="68" text-anchor="middle" font-family="'JetBrains Mono',monospace" font-size="8.5" fill="#fff" fill-opacity="0.5">SITE A</text>
  <text x="468" y="68" text-anchor="middle" font-family="'JetBrains Mono',monospace" font-size="8.5" fill="#fff" fill-opacity="0.5">SITE B</text>
  <text x="532" y="68" text-anchor="middle" font-family="'JetBrains Mono',monospace" font-size="8.5" fill="#fff" fill-opacity="0.5">SITE C</text>
  <line x1="44" y1="76" x2="596" y2="76" stroke="#fff" stroke-opacity="0.18" stroke-width="1"/>

  <line x1="190" y1="76" x2="190" y2="350" stroke="#fff" stroke-opacity="0.12" stroke-width="1"/>
  <line x1="372" y1="76" x2="372" y2="350" stroke="#fff" stroke-opacity="0.12" stroke-width="1"/>

  <line x1="436" y1="76" x2="436" y2="350" stroke="#fff" stroke-opacity="0.1" stroke-width="1"/>
  <line x1="500" y1="76" x2="500" y2="350" stroke="#fff" stroke-opacity="0.1" stroke-width="1"/>

  <rect x="44" y="84" width="142" height="60" rx="6" fill="#fff" fill-opacity="0.06" stroke="#fff" stroke-opacity="0.14" stroke-width="1"/>
  <text x="58" y="118" font-family="'JetBrains Mono',monospace" font-size="11" fill="#fff" fill-opacity="0.62">Market</text>

  <text x="206" y="103" font-family="'JetBrains Mono',monospace" font-size="9.5" fill="#fff" fill-opacity="0.5">Demand volatility</text>
  <text x="206" y="135" font-family="'JetBrains Mono',monospace" font-size="9.5" fill="#fff" fill-opacity="0.5">Sourcing concentration</text>
  <line x1="194" y1="116" x2="368" y2="116" stroke="#fff" stroke-opacity="0.08" stroke-width="1"/>

  <circle cx="404" cy="99" r="4.5" fill="#fff" fill-opacity="0.3"/>
  <circle cx="468" cy="99" r="4.5" fill="#fff" fill-opacity="0.3"/>
  
  <circle cx="404" cy="131" r="4.5" fill="#fff" fill-opacity="0.3"/>
  <circle cx="468" cy="131" r="4.5" fill="#fff" fill-opacity="0.3"/>
  <circle cx="532" cy="131" r="4.5" fill="#fff" fill-opacity="0.3"/>

  <line x1="44" y1="152" x2="596" y2="152" stroke="#fff" stroke-opacity="0.1" stroke-width="1"/>

  <rect x="44" y="160" width="142" height="92" rx="6" fill="#fff" fill-opacity="0.06" stroke="#fff" stroke-opacity="0.14" stroke-width="1"/>
  <text x="58" y="200" font-family="'JetBrains Mono',monospace" font-size="11" fill="#fff" fill-opacity="0.62">Production</text>
  <text x="58" y="218" font-family="'JetBrains Mono',monospace" font-size="11" fill="#fff" fill-opacity="0.62">&amp; Supply</text>

  <text x="206" y="179" font-family="'JetBrains Mono',monospace" font-size="9.5" fill="#fff" fill-opacity="0.5">Capacity constraint</text>
  <text x="206" y="211" font-family="'JetBrains Mono',monospace" font-size="9.5" fill="#fff" fill-opacity="0.5">Single source</text>
  <text x="206" y="243" font-family="'JetBrains Mono',monospace" font-size="9.5" fill="#fff" fill-opacity="0.5">Lead-time fragility</text>
  <line x1="194" y1="192" x2="368" y2="192" stroke="#fff" stroke-opacity="0.08" stroke-width="1"/>
  <line x1="194" y1="224" x2="368" y2="224" stroke="#fff" stroke-opacity="0.08" stroke-width="1"/>

  <circle cx="404" cy="175" r="4.5" fill="#fff" fill-opacity="0.3"/>
  <circle cx="532" cy="175" r="4.5" fill="#fff" fill-opacity="0.3"/>
  
  <rect x="386" y="200" width="164" height="20" rx="5" fill="#fff" fill-opacity="0.92"/>
  <path d="M400 210 l3 3 l6 -6.5" stroke="#0a0a0a" stroke-width="1.6" fill="none" stroke-linecap="round" stroke-linejoin="round"/>
  <path d="M464 210 l3 3 l6 -6.5" stroke="#0a0a0a" stroke-width="1.6" fill="none" stroke-linecap="round" stroke-linejoin="round"/>
  <path d="M528 210 l3 3 l6 -6.5" stroke="#0a0a0a" stroke-width="1.6" fill="none" stroke-linecap="round" stroke-linejoin="round"/>
  
  <circle cx="404" cy="237" r="4.5" fill="#fff" fill-opacity="0.3"/>
  <circle cx="468" cy="237" r="4.5" fill="#fff" fill-opacity="0.3"/>

  <line x1="44" y1="260" x2="596" y2="260" stroke="#fff" stroke-opacity="0.1" stroke-width="1"/>

  <rect x="44" y="268" width="142" height="60" rx="6" fill="#fff" fill-opacity="0.06" stroke="#fff" stroke-opacity="0.14" stroke-width="1"/>
  <text x="58" y="302" font-family="'JetBrains Mono',monospace" font-size="11" fill="#fff" fill-opacity="0.62">Site</text>

  <text x="206" y="287" font-family="'JetBrains Mono',monospace" font-size="9.5" fill="#fff" fill-opacity="0.5">Compliance exposure</text>
  <text x="206" y="319" font-family="'JetBrains Mono',monospace" font-size="9.5" fill="#fff" fill-opacity="0.5">Geographic clustering</text>
  <line x1="194" y1="300" x2="368" y2="300" stroke="#fff" stroke-opacity="0.08" stroke-width="1"/>

  <circle cx="468" cy="283" r="4.5" fill="#fff" fill-opacity="0.3"/>
  <circle cx="532" cy="283" r="4.5" fill="#fff" fill-opacity="0.3"/>
  
  <circle cx="404" cy="315" r="4.5" fill="#fff" fill-opacity="0.3"/>
  <circle cx="468" cy="315" r="4.5" fill="#fff" fill-opacity="0.3"/>
  <circle cx="532" cy="315" r="4.5" fill="#fff" fill-opacity="0.3"/>

  <line x1="44" y1="350" x2="596" y2="350" stroke="#fff" stroke-opacity="0.18" stroke-width="1"/>

  <circle cx="44" cy="367" r="4.5" fill="#fff" fill-opacity="0.3"/>
  <text x="54" y="370" font-family="'JetBrains Mono',monospace" font-size="8.5" fill="#fff" fill-opacity="0.45">relevant</text>
  <rect x="118" y="362" width="11" height="10" rx="3" fill="#fff" fill-opacity="0.92"/>
  <text x="134" y="370" font-family="'JetBrains Mono',monospace" font-size="8.5" fill="#fff" fill-opacity="0.45">critical · network-wide</text>

  <text x="596" y="370" text-anchor="end" font-family="'JetBrains Mono',monospace" font-size="9" fill="#fff" fill-opacity="0.45">risk categories mapped to nested risk types across the network</text>
</svg>
